<mxfile host="Electron" modified="2023-11-15T03:30:30.145Z" agent="Mozilla/5.0 (Windows NT 10.0; Win64; x64) AppleWebKit/537.36 (KHTML, like Gecko) draw.io/21.6.8 Chrome/114.0.5735.289 Electron/25.5.0 Safari/537.36" etag="nfZennFSgPFdpYUPWnJO" version="21.6.8" type="device">
  <diagram name="Page-1" id="pvgYp6ZGxA9OYG5gFkFB">
    <mxGraphModel dx="1195" dy="697" grid="1" gridSize="10" guides="1" tooltips="1" connect="1" arrows="1" fold="1" page="1" pageScale="1" pageWidth="850" pageHeight="1100" math="0" shadow="0">
      <root>
        <mxCell id="0" />
        <mxCell id="1" parent="0" />
        <mxCell id="dKA9DUu8642CIs4H8i4s-4" style="rounded=0;orthogonalLoop=1;jettySize=auto;html=1;exitX=1;exitY=0.5;exitDx=0;exitDy=0;entryX=0;entryY=0.5;entryDx=0;entryDy=0;" edge="1" parent="1" source="dKA9DUu8642CIs4H8i4s-1" target="dKA9DUu8642CIs4H8i4s-2">
          <mxGeometry relative="1" as="geometry" />
        </mxCell>
        <mxCell id="dKA9DUu8642CIs4H8i4s-5" style="rounded=0;orthogonalLoop=1;jettySize=auto;html=1;exitX=1;exitY=0.5;exitDx=0;exitDy=0;entryX=0;entryY=0.5;entryDx=0;entryDy=0;" edge="1" parent="1" source="dKA9DUu8642CIs4H8i4s-1" target="dKA9DUu8642CIs4H8i4s-3">
          <mxGeometry relative="1" as="geometry" />
        </mxCell>
        <mxCell id="dKA9DUu8642CIs4H8i4s-1" value="index.html" style="rounded=1;whiteSpace=wrap;html=1;" vertex="1" parent="1">
          <mxGeometry x="20" y="390" width="120" height="60" as="geometry" />
        </mxCell>
        <mxCell id="dKA9DUu8642CIs4H8i4s-8" style="edgeStyle=orthogonalEdgeStyle;rounded=0;orthogonalLoop=1;jettySize=auto;html=1;exitX=1;exitY=0.5;exitDx=0;exitDy=0;" edge="1" parent="1" source="dKA9DUu8642CIs4H8i4s-2" target="dKA9DUu8642CIs4H8i4s-7">
          <mxGeometry relative="1" as="geometry" />
        </mxCell>
        <mxCell id="dKA9DUu8642CIs4H8i4s-17" style="edgeStyle=orthogonalEdgeStyle;rounded=0;orthogonalLoop=1;jettySize=auto;html=1;exitX=0.5;exitY=0;exitDx=0;exitDy=0;entryX=0.5;entryY=1;entryDx=0;entryDy=0;" edge="1" parent="1" source="dKA9DUu8642CIs4H8i4s-2" target="dKA9DUu8642CIs4H8i4s-15">
          <mxGeometry relative="1" as="geometry" />
        </mxCell>
        <mxCell id="dKA9DUu8642CIs4H8i4s-2" value="signin" style="rounded=1;whiteSpace=wrap;html=1;" vertex="1" parent="1">
          <mxGeometry x="180" y="330" width="120" height="60" as="geometry" />
        </mxCell>
        <mxCell id="dKA9DUu8642CIs4H8i4s-6" style="edgeStyle=orthogonalEdgeStyle;rounded=0;orthogonalLoop=1;jettySize=auto;html=1;exitX=0.5;exitY=0;exitDx=0;exitDy=0;entryX=0.5;entryY=1;entryDx=0;entryDy=0;" edge="1" parent="1" source="dKA9DUu8642CIs4H8i4s-3" target="dKA9DUu8642CIs4H8i4s-2">
          <mxGeometry relative="1" as="geometry" />
        </mxCell>
        <mxCell id="dKA9DUu8642CIs4H8i4s-20" style="edgeStyle=orthogonalEdgeStyle;rounded=0;orthogonalLoop=1;jettySize=auto;html=1;exitX=0.5;exitY=1;exitDx=0;exitDy=0;entryX=0.5;entryY=0;entryDx=0;entryDy=0;" edge="1" parent="1" source="dKA9DUu8642CIs4H8i4s-3" target="dKA9DUu8642CIs4H8i4s-19">
          <mxGeometry relative="1" as="geometry" />
        </mxCell>
        <mxCell id="dKA9DUu8642CIs4H8i4s-3" value="signup" style="rounded=1;whiteSpace=wrap;html=1;" vertex="1" parent="1">
          <mxGeometry x="180" y="450" width="120" height="60" as="geometry" />
        </mxCell>
        <mxCell id="dKA9DUu8642CIs4H8i4s-11" style="rounded=0;orthogonalLoop=1;jettySize=auto;html=1;exitX=1;exitY=0.5;exitDx=0;exitDy=0;entryX=0;entryY=0.5;entryDx=0;entryDy=0;" edge="1" parent="1" source="dKA9DUu8642CIs4H8i4s-7" target="dKA9DUu8642CIs4H8i4s-9">
          <mxGeometry relative="1" as="geometry" />
        </mxCell>
        <mxCell id="dKA9DUu8642CIs4H8i4s-12" style="rounded=0;orthogonalLoop=1;jettySize=auto;html=1;exitX=1;exitY=0.5;exitDx=0;exitDy=0;entryX=0;entryY=0.5;entryDx=0;entryDy=0;" edge="1" parent="1" source="dKA9DUu8642CIs4H8i4s-7" target="dKA9DUu8642CIs4H8i4s-10">
          <mxGeometry relative="1" as="geometry" />
        </mxCell>
        <mxCell id="dKA9DUu8642CIs4H8i4s-26" style="rounded=0;orthogonalLoop=1;jettySize=auto;html=1;exitX=0.5;exitY=0;exitDx=0;exitDy=0;entryX=0.5;entryY=1;entryDx=0;entryDy=0;" edge="1" parent="1" source="dKA9DUu8642CIs4H8i4s-7" target="dKA9DUu8642CIs4H8i4s-22">
          <mxGeometry relative="1" as="geometry" />
        </mxCell>
        <mxCell id="dKA9DUu8642CIs4H8i4s-7" value="profile cv" style="rounded=1;whiteSpace=wrap;html=1;" vertex="1" parent="1">
          <mxGeometry x="400" y="330" width="120" height="60" as="geometry" />
        </mxCell>
        <mxCell id="dKA9DUu8642CIs4H8i4s-34" style="edgeStyle=orthogonalEdgeStyle;rounded=0;orthogonalLoop=1;jettySize=auto;html=1;exitX=0.5;exitY=0;exitDx=0;exitDy=0;entryX=1;entryY=0.25;entryDx=0;entryDy=0;" edge="1" parent="1" source="dKA9DUu8642CIs4H8i4s-9" target="dKA9DUu8642CIs4H8i4s-22">
          <mxGeometry relative="1" as="geometry" />
        </mxCell>
        <mxCell id="dKA9DUu8642CIs4H8i4s-9" value="Form create" style="ellipse;whiteSpace=wrap;html=1;" vertex="1" parent="1">
          <mxGeometry x="630" y="250" width="120" height="80" as="geometry" />
        </mxCell>
        <mxCell id="dKA9DUu8642CIs4H8i4s-36" style="edgeStyle=orthogonalEdgeStyle;rounded=0;orthogonalLoop=1;jettySize=auto;html=1;exitX=1;exitY=0.5;exitDx=0;exitDy=0;entryX=0.75;entryY=0;entryDx=0;entryDy=0;" edge="1" parent="1" source="dKA9DUu8642CIs4H8i4s-10" target="dKA9DUu8642CIs4H8i4s-22">
          <mxGeometry relative="1" as="geometry" />
        </mxCell>
        <mxCell id="dKA9DUu8642CIs4H8i4s-10" value="Form update" style="ellipse;whiteSpace=wrap;html=1;" vertex="1" parent="1">
          <mxGeometry x="630" y="380" width="120" height="80" as="geometry" />
        </mxCell>
        <mxCell id="dKA9DUu8642CIs4H8i4s-16" style="edgeStyle=orthogonalEdgeStyle;rounded=0;orthogonalLoop=1;jettySize=auto;html=1;exitX=0;exitY=0.5;exitDx=0;exitDy=0;entryX=1;entryY=0.5;entryDx=0;entryDy=0;" edge="1" parent="1" source="dKA9DUu8642CIs4H8i4s-13" target="dKA9DUu8642CIs4H8i4s-15">
          <mxGeometry relative="1" as="geometry" />
        </mxCell>
        <mxCell id="dKA9DUu8642CIs4H8i4s-23" style="edgeStyle=orthogonalEdgeStyle;rounded=0;orthogonalLoop=1;jettySize=auto;html=1;exitX=0.5;exitY=1;exitDx=0;exitDy=0;" edge="1" parent="1" source="dKA9DUu8642CIs4H8i4s-13" target="dKA9DUu8642CIs4H8i4s-22">
          <mxGeometry relative="1" as="geometry" />
        </mxCell>
        <mxCell id="dKA9DUu8642CIs4H8i4s-13" value="db.json/users" style="rounded=0;whiteSpace=wrap;html=1;" vertex="1" parent="1">
          <mxGeometry x="360" y="50" width="120" height="60" as="geometry" />
        </mxCell>
        <mxCell id="dKA9DUu8642CIs4H8i4s-15" value="users[]&lt;br&gt;username, password" style="rounded=0;whiteSpace=wrap;html=1;" vertex="1" parent="1">
          <mxGeometry x="180" y="120" width="120" height="60" as="geometry" />
        </mxCell>
        <mxCell id="dKA9DUu8642CIs4H8i4s-18" value="GET" style="text;html=1;strokeColor=none;fillColor=none;align=center;verticalAlign=middle;whiteSpace=wrap;rounded=0;" vertex="1" parent="1">
          <mxGeometry x="180" y="240" width="60" height="30" as="geometry" />
        </mxCell>
        <mxCell id="dKA9DUu8642CIs4H8i4s-19" value="users[]&lt;br&gt;username, password" style="rounded=0;whiteSpace=wrap;html=1;" vertex="1" parent="1">
          <mxGeometry x="180" y="620" width="120" height="60" as="geometry" />
        </mxCell>
        <mxCell id="dKA9DUu8642CIs4H8i4s-21" value="POST" style="text;html=1;strokeColor=none;fillColor=none;align=center;verticalAlign=middle;whiteSpace=wrap;rounded=0;" vertex="1" parent="1">
          <mxGeometry x="240" y="550" width="60" height="30" as="geometry" />
        </mxCell>
        <mxCell id="dKA9DUu8642CIs4H8i4s-22" value="users[]&lt;br&gt;id, cvList" style="rounded=0;whiteSpace=wrap;html=1;" vertex="1" parent="1">
          <mxGeometry x="400" y="210" width="120" height="60" as="geometry" />
        </mxCell>
        <mxCell id="dKA9DUu8642CIs4H8i4s-28" value="GET" style="text;html=1;strokeColor=none;fillColor=none;align=center;verticalAlign=middle;whiteSpace=wrap;rounded=0;" vertex="1" parent="1">
          <mxGeometry x="395" y="290" width="60" height="30" as="geometry" />
        </mxCell>
        <mxCell id="dKA9DUu8642CIs4H8i4s-35" value="POST" style="text;html=1;strokeColor=none;fillColor=none;align=center;verticalAlign=middle;whiteSpace=wrap;rounded=0;" vertex="1" parent="1">
          <mxGeometry x="580" y="190" width="60" height="30" as="geometry" />
        </mxCell>
        <mxCell id="dKA9DUu8642CIs4H8i4s-37" value="PATCH" style="text;html=1;strokeColor=none;fillColor=none;align=center;verticalAlign=middle;whiteSpace=wrap;rounded=0;" vertex="1" parent="1">
          <mxGeometry x="770" y="370" width="60" height="30" as="geometry" />
        </mxCell>
      </root>
    </mxGraphModel>
  </diagram>
</mxfile>
